<svg id="visual" viewBox="0 0 900 600" width="900" height="600" xmlns="http://www.w3.org/2000/svg" xmlns:xlink="http://www.w3.org/1999/xlink" version="1.1"><rect width="900" height="600" fill="#F5F5DC"></rect><g><g transform="translate(667 130)"><path d="M81.2 -30.1C90.2 1.4 72.2 37.9 43.9 57.9C15.6 77.9 -22.9 81.2 -46.7 64C-70.5 46.8 -79.5 9 -69.3 -24.1C-59 -57.2 -29.5 -85.7 3.3 -86.8C36.1 -87.8 72.2 -61.5 81.2 -30.1Z" stroke="#9e8f82" fill="none" stroke-width="20"></path></g><g transform="translate(487 522)"><path d="M62.4 -15.7C71.7 8.1 63.5 42.1 44.1 54.8C24.8 67.5 -5.8 58.8 -27.4 42.1C-49 25.3 -61.6 0.6 -55.6 -18.8C-49.5 -38.3 -24.7 -52.5 0.9 -52.8C26.6 -53.1 53.2 -39.5 62.4 -15.7Z" stroke="#9e8f82" fill="none" stroke-width="20"></path></g><g transform="translate(27 15)"><path d="M83.5 -24.6C93.7 4.2 77.3 44.1 49.1 63.6C20.9 83.2 -19.2 82.4 -45.6 63.1C-72 43.9 -84.7 6.1 -74.8 -22.3C-64.9 -50.7 -32.5 -69.8 2.1 -70.5C36.7 -71.1 73.3 -53.4 83.5 -24.6Z" stroke="#9e8f82" fill="none" stroke-width="20"></path></g></g></svg>